<svg width="240" height="240" viewBox="0 0 240 240" fill="none" xmlns="http://www.w3.org/2000/svg">
  <rect width="240" height="240" rx="120" fill="#E7F0FF" />
  <circle cx="120" cy="90" r="44" fill="#C4D8FF" />
  <path d="M52 206C52 169.549 81.5492 140 118 140H122C158.451 140 188 169.549 188 206V240H52V206Z" fill="#C4D8FF" />
  <path d="M105.355 121V58.8182H130.105C134.847 58.8182 138.918 59.7576 142.318 61.6364C145.718 63.5152 148.328 66.1136 150.148 69.4318C151.987 72.75 152.906 76.5795 152.906 80.9205C152.906 85.2803 151.987 89.1193 150.148 92.4375C148.328 95.7557 145.708 98.3447 142.287 100.205C138.885 102.065 134.795 102.995 130.014 102.995H113.159V91.9205H127.783C130.187 91.9205 132.177 91.5057 133.753 90.6761C135.347 89.8466 136.538 88.7055 137.325 87.2528C138.132 85.7812 138.535 83.6705 138.535 80.9205C138.535 78.1515 138.132 76.0502 137.325 74.6165C136.538 73.1648 135.347 72.0436 133.753 71.2528C132.158 70.4432 130.146 70.0384 127.722 70.0384H119.008V121H105.355Z" fill="#2E5FAF" />
</svg>

